<mxfile host="app.diagrams.net" agent="Mozilla/5.0 (Windows NT 10.0; Win64; x64) AppleWebKit/537.36 (KHTML, like Gecko) Chrome/135.0.0.0 Safari/537.36" version="26.2.10">
  <diagram name="PÃ¡gina-1" id="BRUjQBI8W4FsV3uIElwB">
    <mxGraphModel dx="874" dy="1648" grid="1" gridSize="10" guides="1" tooltips="1" connect="1" arrows="1" fold="1" page="1" pageScale="1" pageWidth="827" pageHeight="1169" math="0" shadow="0">
      <root>
        <mxCell id="0" />
        <mxCell id="1" parent="0" />
        <mxCell id="1ufMEjy1xL9u0zjhWjoc-1" value="&lt;font style=&quot;font-size: 24px;&quot;&gt;num1&lt;/font&gt;" style="shape=manualInput;whiteSpace=wrap;html=1;" parent="1" vertex="1">
          <mxGeometry x="330" y="110" width="130" height="70" as="geometry" />
        </mxCell>
        <mxCell id="1ufMEjy1xL9u0zjhWjoc-2" value="&lt;font style=&quot;font-size: 36px;&quot;&gt;Inicio&lt;/font&gt;" style="strokeWidth=2;html=1;shape=mxgraph.flowchart.terminator;whiteSpace=wrap;" parent="1" vertex="1">
          <mxGeometry x="300" y="-130" width="196" height="60" as="geometry" />
        </mxCell>
        <mxCell id="1ufMEjy1xL9u0zjhWjoc-16" style="edgeStyle=orthogonalEdgeStyle;rounded=0;orthogonalLoop=1;jettySize=auto;html=1;" parent="1" source="1ufMEjy1xL9u0zjhWjoc-5" edge="1">
          <mxGeometry relative="1" as="geometry">
            <mxPoint x="398" as="targetPoint" />
            <Array as="points">
              <mxPoint x="400" />
            </Array>
          </mxGeometry>
        </mxCell>
        <mxCell id="1ufMEjy1xL9u0zjhWjoc-5" value="&lt;font style=&quot;font-size: 18px;&quot;&gt;&amp;nbsp; &amp;nbsp;num1 = 0, num2 = 0, suma = 0&amp;nbsp;&lt;/font&gt;" style="shape=hexagon;perimeter=hexagonPerimeter2;whiteSpace=wrap;html=1;fixedSize=1;align=left;" parent="1" vertex="1">
          <mxGeometry x="243" y="-20" width="310" height="60" as="geometry" />
        </mxCell>
        <mxCell id="1ufMEjy1xL9u0zjhWjoc-12" value="" style="endArrow=classic;html=1;rounded=0;exitX=0.5;exitY=1;exitDx=0;exitDy=0;" parent="1" source="1ufMEjy1xL9u0zjhWjoc-5" edge="1">
          <mxGeometry width="50" height="50" relative="1" as="geometry">
            <mxPoint x="400" y="60" as="sourcePoint" />
            <mxPoint x="400" y="110" as="targetPoint" />
            <Array as="points" />
          </mxGeometry>
        </mxCell>
        <mxCell id="1ufMEjy1xL9u0zjhWjoc-15" value="" style="endArrow=classic;html=1;rounded=0;" parent="1" edge="1">
          <mxGeometry width="50" height="50" relative="1" as="geometry">
            <mxPoint x="397.5" y="-70" as="sourcePoint" />
            <mxPoint x="398" y="-20" as="targetPoint" />
          </mxGeometry>
        </mxCell>
        <mxCell id="1ufMEjy1xL9u0zjhWjoc-17" value="" style="endArrow=classic;html=1;rounded=0;" parent="1" edge="1">
          <mxGeometry width="50" height="50" relative="1" as="geometry">
            <mxPoint x="397.5" y="180" as="sourcePoint" />
            <mxPoint x="397.5" y="230" as="targetPoint" />
          </mxGeometry>
        </mxCell>
        <mxCell id="1ufMEjy1xL9u0zjhWjoc-18" value="&lt;font style=&quot;font-size: 24px;&quot;&gt;num2&lt;/font&gt;" style="shape=manualInput;whiteSpace=wrap;html=1;" parent="1" vertex="1">
          <mxGeometry x="330" y="220" width="130" height="70" as="geometry" />
        </mxCell>
        <mxCell id="1ufMEjy1xL9u0zjhWjoc-19" value="&lt;font style=&quot;font-size: 24px;&quot;&gt;suma = num1 + num2&lt;/font&gt;" style="rounded=0;whiteSpace=wrap;html=1;" parent="1" vertex="1">
          <mxGeometry x="213" y="360" width="370" height="60" as="geometry" />
        </mxCell>
        <mxCell id="1ufMEjy1xL9u0zjhWjoc-20" value="" style="endArrow=classic;html=1;rounded=0;" parent="1" edge="1">
          <mxGeometry width="50" height="50" relative="1" as="geometry">
            <mxPoint x="400" y="290" as="sourcePoint" />
            <mxPoint x="400" y="360" as="targetPoint" />
          </mxGeometry>
        </mxCell>
        <mxCell id="1ufMEjy1xL9u0zjhWjoc-21" value="&lt;font style=&quot;font-size: 36px;&quot;&gt;Fin&lt;/font&gt;" style="strokeWidth=2;html=1;shape=mxgraph.flowchart.terminator;whiteSpace=wrap;" parent="1" vertex="1">
          <mxGeometry x="307" y="500" width="182" height="60" as="geometry" />
        </mxCell>
        <mxCell id="1ufMEjy1xL9u0zjhWjoc-22" value="" style="endArrow=classic;html=1;rounded=0;entryX=0.5;entryY=0;entryDx=0;entryDy=0;entryPerimeter=0;" parent="1" target="1ufMEjy1xL9u0zjhWjoc-21" edge="1">
          <mxGeometry width="50" height="50" relative="1" as="geometry">
            <mxPoint x="400" y="420" as="sourcePoint" />
            <mxPoint x="400" y="490" as="targetPoint" />
          </mxGeometry>
        </mxCell>
      </root>
    </mxGraphModel>
  </diagram>
</mxfile>
